<?xml version="1.0" standalone="no"?>
<!DOCTYPE svg PUBLIC "-//W3C//DTD SVG 20010904//EN"
 "http://www.w3.org/TR/2001/REC-SVG-20010904/DTD/svg10.dtd">
<svg version="1.0" xmlns="http://www.w3.org/2000/svg"
 width="283.000000pt" height="283.000000pt" viewBox="0 0 283.000000 283.000000"
 preserveAspectRatio="xMidYMid meet">
<metadata>
Created by potrace 1.11, written by Peter Selinger 2001-2013
</metadata>
<g transform="translate(0.000000,283.000000) scale(0.100000,-0.100000)"
fill="#000000" stroke="none">
<path d="M146 2820 c-51 -16 -96 -54 -121 -104 l-25 -50 0 -1240 c0 -878 3
-1253 11 -1281 15 -52 82 -119 134 -134 28 -8 402 -11 1280 -11 1188 0 1242 1
1281 19 23 10 53 32 68 47 60 65 57 -8 54 1364 l-3 1255 -23 40 c-26 45 -72
81 -123 95 -42 12 -2492 12 -2533 0z"/>
</g>
</svg>
